<svg xmlns="http://www.w3.org/2000/svg" viewBox="0 0 100 100"><polygon points="20,50 30,15 44,50" fill="#111111"/><polygon points="56,50 70,15 80,50" fill="#111111"/><polygon points="24,47 30,22 40,47" fill="#2a2a2a" opacity=".7"/><polygon points="60,47 70,22 76,47" fill="#2a2a2a" opacity=".7"/><circle cx="50" cy="57" r="34" fill="#1a1a1a"/><ellipse cx="50" cy="70" rx="16" ry="12" fill="#2a2a2a" opacity=".45"/><ellipse cx="50" cy="65" rx="12" ry="8" fill="white"/><circle cx="50" cy="55" r="6" fill="white"/><ellipse cx="37" cy="50" rx="5" ry="6" fill="#111"/><ellipse cx="63" cy="50" rx="5" ry="6" fill="#111"/><circle cx="38.5" cy="48.5" r="1.8" fill="white"/><circle cx="64.5" cy="48.5" r="1.8" fill="white"/><polygon points="50,63 47,68 53,68" fill="#f090a0"/><path d="M47,68 Q43,73 40,71" stroke="#888" stroke-width="1.2" fill="none"/><path d="M53,68 Q57,73 60,71" stroke="#888" stroke-width="1.2" fill="none"/></svg>